<?xml version="1.0" standalone="no"?>
<!DOCTYPE svg PUBLIC "-//W3C//DTD SVG 20010904//EN"
 "http://www.w3.org/TR/2001/REC-SVG-20010904/DTD/svg10.dtd">
<svg version="1.0" xmlns="http://www.w3.org/2000/svg"
 width="200.000000pt" height="200.000000pt" viewBox="0 0 200.000000 200.000000"
 preserveAspectRatio="xMidYMid meet">
<metadata>
Created by potrace 1.14, written by Peter Selinger 2001-2017
</metadata>
<g transform="translate(0.000000,200.000000) scale(0.100000,-0.100000)"
fill="#000000" stroke="none">
<path d="M870 1881 c-47 -9 -96 -23 -110 -30 -53 -28 -148 -95 -159 -113 -10
-17 -10 -17 9 -6 11 7 20 16 20 19 0 10 125 89 141 89 8 0 20 5 27 12 7 7 12
9 12 6 0 -3 26 1 58 8 164 39 384 -5 481 -95 28 -26 31 -34 21 -46 -9 -10 -9
-15 -1 -15 6 0 11 -6 11 -14 0 -7 7 -19 15 -26 12 -10 15 -9 15 4 0 10 -5 27
-11 39 -12 22 -12 22 10 3 11 -11 21 -26 21 -35 0 -13 2 -14 9 -2 7 11 15 3
31 -30 13 -25 17 -39 9 -33 -44 36 -369 94 -524 94 -116 0 -265 -21 -405 -55
-3 -1 -23 -9 -45 -19 l-40 -17 -39 42 -39 41 8 -33 c4 -19 9 -43 11 -54 4 -16
-11 -28 -78 -65 -103 -56 -127 -77 -199 -168 -69 -86 -83 -128 -77 -238 5 -94
29 -145 101 -211 42 -39 136 -83 177 -83 11 0 20 -4 20 -10 0 -5 19 -2 43 6
69 26 98 33 92 25 -2 -5 -31 -19 -62 -32 -78 -31 -144 -69 -150 -85 -6 -16
-65 -34 -112 -34 -19 0 -44 -8 -55 -18 -20 -17 -20 -17 -5 8 11 17 38 33 90
50 41 14 83 32 94 39 23 14 20 14 -93 -24 -76 -25 -84 -31 -108 -71 -14 -24
-39 -55 -55 -68 -50 -42 -32 -38 35 8 36 24 78 47 95 51 68 15 145 -38 200
-136 l23 -41 -29 6 c-24 6 -37 1 -62 -19 -17 -15 -31 -34 -31 -42 0 -10 -5
-13 -17 -8 -38 15 -158 17 -197 3 -72 -24 -57 -38 41 -38 87 -1 166 -14 378
-64 169 -40 262 -49 487 -50 227 -1 238 2 244 59 8 75 28 140 50 162 13 13 28
21 34 18 5 -3 28 22 50 55 36 53 43 71 49 135 8 81 3 155 -9 155 -5 0 -6 -24
-3 -54 6 -61 -4 -149 -17 -141 -4 3 -11 -2 -14 -11 -4 -12 -2 -15 9 -10 37 14
0 -38 -51 -72 -19 -13 -19 -13 1 -8 13 4 6 -6 -20 -29 -22 -19 -44 -39 -50
-46 -57 -64 -142 -109 -208 -109 -73 0 -195 50 -298 122 -75 52 -111 133 -144
322 -18 109 -18 119 1 83 22 -40 26 -29 14 33 -12 64 -13 147 -2 154 5 3 14
-29 22 -71 10 -59 15 -71 23 -57 5 11 19 27 31 37 l21 18 -22 -11 c-18 -8 -23
-8 -23 3 0 13 13 60 27 97 4 8 5 18 5 23 -1 4 3 7 9 7 5 0 7 5 3 12 -5 8 -2 9
9 5 10 -3 17 -2 17 3 0 6 4 10 9 10 5 0 7 -9 4 -20 -3 -11 -9 -17 -14 -14 -5
3 -6 -1 -3 -9 2 -7 0 -26 -6 -42 -19 -49 -4 -38 30 22 40 72 37 68 55 53 8 -7
15 -30 16 -54 l1 -41 12 36 c10 33 13 35 26 21 8 -9 23 -27 32 -41 13 -19 18
-22 18 -9 0 9 -16 33 -35 54 -19 20 -35 42 -35 48 1 56 74 266 92 266 7 0 6
-5 -1 -13 -8 -11 -5 -13 19 -9 17 2 30 8 30 13 0 5 -6 7 -12 5 -7 -1 -10 -1
-5 1 4 3 7 9 7 14 0 6 -4 8 -9 4 -5 -3 -12 -1 -15 4 -5 7 14 21 29 21 4 0 17
-75 20 -113 1 -15 5 -30 10 -35 4 -4 4 4 0 18 -4 14 21 -30 55 -98 58 -113 62
-125 50 -147 -7 -14 -10 -28 -7 -32 4 -3 7 -1 7 6 0 7 5 9 12 5 7 -4 8 -3 4 4
-4 7 -4 17 -1 23 4 6 17 -5 32 -26 30 -45 40 -40 17 8 -19 39 -15 61 14 76 17
9 22 5 37 -37 27 -73 35 -73 35 0 l0 67 28 -5 c15 -2 32 -6 38 -9 12 -4 46
-94 49 -130 3 -31 16 -55 30 -55 7 0 11 9 8 23 -3 13 0 39 5 58 9 31 10 29 11
-31 1 -36 -3 -80 -8 -97 -11 -36 2 -53 18 -26 9 16 10 15 11 -6 0 -19 -4 -22
-20 -18 -13 3 -24 -1 -29 -12 -8 -14 -4 -16 29 -13 48 5 83 -26 100 -88 9 -35
9 -44 -4 -53 -8 -7 -16 -21 -18 -32 -2 -11 -5 -22 -8 -25 -11 -11 -39 -87 -45
-124 -6 -34 -3 -42 21 -63 30 -25 48 -27 111 -13 24 6 97 12 162 15 l120 5 21
-27 c20 -26 20 -28 3 -34 -33 -13 -108 -9 -131 7 -20 14 -32 7 -15 -10 4 -4 9
-18 10 -32 5 -31 -29 -46 -70 -31 -22 7 -41 4 -88 -12 -33 -12 -69 -24 -81
-26 -32 -7 -47 -25 -20 -25 12 0 22 -5 22 -11 0 -8 6 -7 17 2 15 12 16 12 10
-5 -6 -15 -5 -16 5 -8 8 6 50 9 102 8 85 -2 90 -4 113 -32 12 -16 23 -39 23
-50 0 -28 -25 -33 -207 -42 -134 -7 -183 -19 -153 -37 6 -4 55 -11 108 -15
106 -10 156 -23 150 -42 -7 -19 -88 -58 -120 -58 -15 0 -70 7 -121 15 -50 8
-137 13 -192 12 -59 -1 -108 3 -120 10 -27 15 -388 25 -543 16 -68 -5 -126 -5
-128 -2 -7 12 -66 19 -84 9 -15 -8 -21 -5 -32 20 -7 17 -17 29 -23 27 -5 -2
-23 9 -40 25 -16 15 -36 26 -43 23 -22 -8 -74 28 -80 55 -2 8 -13 23 -25 33
-68 55 -66 52 -48 59 11 5 8 7 -11 7 -59 2 -58 4 -58 -185 l0 -174 1000 0
1000 0 0 61 c0 45 -3 58 -12 53 -10 -6 -10 -4 0 7 16 17 15 49 -3 73 -15 20
-15 20 -15 0 0 -14 -2 -16 -9 -5 -6 9 -11 10 -15 2 -4 -6 -12 -8 -18 -5 -7 5
-9 1 -5 -9 4 -12 1 -15 -15 -12 -23 5 -48 -10 -48 -28 0 -6 7 -2 15 9 8 10 15
14 15 7 0 -6 -7 -18 -15 -27 -19 -19 -19 -30 0 -23 8 4 17 2 20 -3 4 -6 -11
-9 -34 -8 -36 1 -41 4 -41 24 0 13 9 28 20 34 47 25 30 139 -25 160 -14 5 -25
14 -25 19 0 20 64 43 136 48 75 6 83 10 62 31 -8 8 -8 15 0 24 8 10 5 13 -13
13 -13 0 -21 -4 -18 -9 3 -4 -6 -1 -20 8 -14 10 -31 30 -37 47 -7 16 -26 37
-41 46 -31 19 -41 40 -11 24 11 -6 27 -10 38 -9 10 0 27 -3 37 -7 10 -4 17 -3
17 3 0 6 -16 16 -35 23 -40 15 -32 23 33 34 40 6 42 8 28 24 -9 10 -21 31 -26
48 -9 25 -25 37 -93 67 -45 21 -93 44 -107 52 -14 9 -55 30 -92 47 -38 18 -68
36 -68 40 0 5 4 6 9 2 5 -3 37 11 70 30 66 39 142 121 167 180 22 55 20 164
-6 221 -11 26 -20 52 -20 59 0 23 -148 150 -216 185 -57 29 -73 44 -99 87 -16
29 -43 63 -60 75 -16 13 -44 37 -61 54 -57 55 -148 95 -248 110 -113 17 -140
17 -246 -5z m202 -191 c31 0 59 -4 63 -10 3 -5 30 -10 60 -10 30 0 57 -5 60
-10 4 -6 10 -8 15 -5 8 5 68 -9 160 -38 25 -8 44 -19 42 -26 -1 -7 2 -10 7 -6
6 3 18 2 28 -3 10 -5 43 -21 73 -35 31 -15 85 -54 120 -86 65 -58 65 -59 46
-80 -21 -23 -36 -27 -36 -10 0 17 -62 84 -74 81 -6 -2 -5 2 2 9 19 20 14 28
-13 23 -20 -3 -23 -1 -18 13 6 16 5 16 -10 4 -15 -12 -22 -10 -56 14 -22 15
-55 30 -73 35 -18 4 -40 9 -48 11 -8 2 -18 8 -22 13 -8 12 -103 39 -138 40
-14 0 -27 3 -30 7 -8 10 -91 20 -104 12 -13 -9 -172 -5 -281 6 -78 9 -141 5
-149 -8 -2 -3 28 -7 67 -8 64 -1 163 -10 352 -29 33 -4 68 -8 77 -9 10 0 21
-4 24 -8 4 -4 17 -7 29 -7 12 0 30 -6 41 -14 17 -13 12 -14 -45 -10 -35 2 -68
7 -75 11 -22 14 -135 11 -140 -3 -3 -8 -11 -14 -18 -14 -9 0 -8 3 2 10 12 8
10 10 -10 10 -14 0 -43 -3 -65 -7 -31 -5 -35 -8 -20 -14 12 -5 -8 -8 -53 -8
-76 -1 -163 22 -222 58 -31 18 -31 18 -8 25 14 5 18 9 10 13 -7 3 -19 -1 -28
-7 -13 -11 -12 -15 3 -33 10 -11 38 -33 63 -49 l45 -30 -35 7 c-40 8 -194 78
-203 92 -7 11 68 33 188 57 114 22 156 26 150 15 -8 -12 8 -12 21 0 10 11 116
20 149 14 11 -3 45 -4 77 -3z m-642 -123 c0 -7 18 -35 39 -63 l39 -51 -62 -8
c-33 -4 -76 -8 -93 -8 -28 0 -31 -3 -20 -15 10 -13 9 -15 -11 -10 -12 4 -20 2
-16 -3 3 -5 -6 -13 -20 -19 -32 -12 -35 -34 -5 -25 34 11 81 13 124 6 l40 -7
-45 -18 c-63 -25 -181 -33 -198 -13 -10 12 -3 23 45 67 32 29 75 64 97 79 47
31 32 40 -21 12 -93 -47 -222 -180 -238 -244 -6 -23 -4 -25 17 -21 l23 5 -22
-10 c-13 -6 -23 -16 -23 -23 0 -9 3 -9 10 2 7 10 10 11 10 2 0 -7 -7 -15 -15
-18 -8 -4 -15 -10 -15 -16 0 -5 4 -6 10 -3 6 3 7 -1 4 -9 -10 -26 -24 -18 -24
14 0 68 22 130 66 187 24 31 44 60 44 65 0 4 11 10 25 14 14 3 25 13 25 22 0
8 2 13 5 10 3 -3 18 6 34 21 16 14 46 35 67 46 22 10 50 27 63 37 24 18 41 16
41 -5z m554 -25 c2 -4 -5 -9 -17 -9 -17 -2 -19 0 -7 7 18 12 18 12 24 2z m186
4 c0 -2 -8 -10 -17 -17 -16 -13 -17 -12 -4 4 13 16 21 21 21 13z m35 -26 c13
-6 15 -9 5 -9 -8 0 -22 4 -30 9 -18 12 -2 12 25 0z m-140 -66 c9 -15 12 -23 6
-20 -6 4 -11 1 -11 -7 0 -19 34 -49 46 -40 5 5 6 4 2 0 -3 -5 3 -18 14 -29 11
-11 17 -26 14 -34 -3 -8 -2 -14 3 -14 4 0 15 -18 23 -39 15 -38 15 -40 -6 -60
-12 -12 -25 -21 -28 -21 -11 0 -69 182 -82 258 -7 39 -3 40 19 6z m174 -105
c17 -27 29 -54 26 -59 -3 -5 0 -12 6 -16 8 -5 10 -2 5 7 -4 8 0 5 8 -5 23 -29
20 -36 -17 -36 -33 0 -34 0 -45 65 -7 35 -15 71 -18 80 -12 31 5 14 35 -36z
m-480 -59 c-15 -48 -28 -71 -41 -76 -11 -3 -22 -3 -25 0 -7 7 12 53 51 125 39
71 46 47 15 -49z m1031 78 c0 -6 -7 -20 -17 -30 -17 -19 -5 -26 14 -7 9 9 16
2 27 -26 9 -21 16 -48 16 -61 0 -25 -19 -74 -29 -74 -7 0 -31 73 -31 92 0 8
-9 30 -19 50 -21 37 -19 50 5 41 8 -3 14 1 14 11 0 9 5 16 10 16 6 0 10 -5 10
-12z m-1456 -109 c44 -16 76 -29 69 -29 -6 0 -42 -20 -79 -45 -68 -46 -127
-59 -164 -35 -12 8 -9 10 13 10 15 0 27 5 27 10 0 6 -9 10 -19 10 -32 0 -51
11 -51 30 0 29 14 32 85 15 75 -17 99 -19 91 -6 -3 4 -23 11 -43 15 -21 3 -55
11 -76 17 -33 9 -37 13 -31 32 13 44 24 49 61 25 20 -11 72 -34 117 -49z
m1221 41 c10 -11 16 -20 13 -20 -3 0 -13 9 -23 20 -10 11 -16 20 -13 20 3 0
13 -9 23 -20z m-757 -80 c-2 -13 -7 -17 -15 -12 -10 7 -10 14 0 35 13 28 21
15 15 -23z m-201 -32 c-3 -8 -6 -5 -6 6 -1 11 2 17 5 13 3 -3 4 -12 1 -19z
m-322 -78 c-3 -5 -14 -10 -23 -9 -14 0 -13 2 3 9 27 11 27 11 20 0z m-192 -20
c3 -11 1 -18 -4 -14 -5 3 -9 12 -9 20 0 20 7 17 13 -6z m130 10 c-12 -5 -34
-5 -50 0 -24 7 -21 8 22 9 38 0 45 -2 28 -9z m1411 -116 c3 -8 2 -12 -4 -9 -6
3 -10 10 -10 16 0 14 7 11 14 -7z m-87 -96 c17 -16 23 -32 23 -65 0 -45 -14
-58 -23 -21 -4 12 -1 28 6 36 9 12 8 17 -7 26 -10 6 -28 19 -40 28 -20 16 -20
17 -2 18 11 0 30 -10 43 -22z m-997 -47 c16 -32 13 -46 -7 -29 -10 8 -23 18
-30 22 -16 9 -43 -21 -43 -47 0 -19 1 -19 13 -4 18 25 61 17 65 -12 3 -16 -3
-24 -17 -28 -12 -3 -21 -9 -21 -15 0 -13 37 9 49 30 9 15 10 13 11 -9 0 -14
-9 -34 -20 -44 -31 -28 -25 -51 22 -74 23 -11 45 -18 49 -16 3 3 12 -2 19 -10
41 -49 -79 -16 -131 36 -58 58 -78 160 -39 199 26 26 66 26 80 1z m-26 -30 c4
-5 -3 -7 -14 -4 -23 6 -26 13 -6 13 8 0 17 -4 20 -9z m80 -117 c3 -8 2 -12 -4
-9 -6 3 -10 10 -10 16 0 14 7 11 14 -7z m28 -217 c42 -25 87 -49 101 -52 13
-4 46 -29 73 -56 l48 -49 -37 0 c-21 0 -52 7 -68 16 -20 10 -41 13 -62 8 -66
-14 -106 -3 -167 45 l-25 20 25 -5 c23 -5 23 -4 8 8 -9 8 -35 21 -58 28 -36
12 -43 12 -57 -3 -15 -15 -14 -16 19 -11 41 7 56 -7 32 -30 -19 -19 -25 -20
-94 -1 -64 17 -95 47 -79 76 19 36 52 43 106 24 26 -10 71 -26 100 -36 29 -10
72 -29 96 -43 46 -27 77 -33 77 -16 0 6 -12 15 -26 21 -15 5 -44 23 -65 40
-27 21 -45 28 -59 24 -24 -8 -80 3 -80 15 0 7 97 29 110 25 3 -1 40 -23 82
-48z m198 -44 c0 -8 -38 17 -51 33 -9 11 -2 9 19 -6 17 -13 32 -25 32 -27z
m70 -49 c0 -2 -9 0 -20 6 -11 6 -20 13 -20 16 0 2 9 0 20 -6 11 -6 20 -13 20
-16z m945 -115 c8 -12 6 -15 -22 -23 -16 -5 -23 -2 -28 13 -9 30 2 43 25 31
10 -6 22 -15 25 -21z m92 -153 c-8 -16 -14 -21 -19 -13 -11 17 -10 29 1 22 5
-3 12 -1 16 5 12 19 13 10 2 -14z m-1506 -24 c-7 -2 -18 1 -23 6 -8 8 -4 9 13
5 13 -4 18 -8 10 -11z"/>
<path d="M235 1380 c-3 -5 -1 -10 4 -10 6 0 11 5 11 10 0 6 -2 10 -4 10 -3 0
-8 -4 -11 -10z"/>
<path d="M1100 1356 c0 -2 8 -10 18 -17 15 -13 16 -12 3 4 -13 16 -21 21 -21
13z"/>
<path d="M803 1818 c-12 -16 -24 -48 -18 -48 2 0 11 14 20 30 16 31 15 40 -2
18z"/>
<path d="M1210 1778 c11 -24 20 -51 20 -60 0 -10 4 -18 9 -18 6 0 6 12 0 32
-5 17 -7 34 -4 36 2 2 9 -14 15 -37 12 -46 30 -55 30 -16 0 31 -26 85 -41 85
-6 0 -7 -4 -4 -10 3 -5 2 -10 -3 -10 -5 0 -12 9 -15 20 -3 11 -10 20 -16 20
-5 0 -2 -19 9 -42z"/>
<path d="M1135 1783 c3 -16 11 -32 17 -38 8 -7 9 -4 4 8 -3 10 -6 27 -6 38 0
10 -5 19 -11 19 -7 0 -9 -10 -4 -27z"/>
<path d="M1097 1770 c-3 -11 -1 -18 3 -15 5 3 11 -1 13 -7 3 -7 6 -3 6 9 1 29
-15 38 -22 13z"/>
<path d="M817 1774 c-4 -4 -7 -19 -6 -33 l0 -26 10 24 c10 26 8 47 -4 35z"/>
<path d="M664 1745 c-9 -14 -15 -28 -12 -30 2 -2 12 9 22 25 21 36 13 40 -10
5z"/>
<path d="M1332 1751 c-11 -6 -11 -14 2 -42 l14 -34 -1 42 c-1 24 -2 43 -2 43
0 0 -6 -4 -13 -9z"/>
<path d="M730 1729 c-7 -11 -10 -23 -7 -25 2 -2 9 7 15 21 14 30 7 33 -8 4z"/>
<path d="M1016 1267 c3 -10 9 -15 12 -12 3 3 0 11 -7 18 -10 9 -11 8 -5 -6z"/>
<path d="M760 1172 c0 -5 7 -9 15 -9 8 0 15 4 15 9 0 4 -7 8 -15 8 -8 0 -15
-4 -15 -8z"/>
<path d="M1272 1074 c44 -14 66 -30 104 -79 17 -22 16 -15 -5 27 -14 27 -93
69 -128 67 -10 -1 3 -8 29 -15z"/>
<path d="M1180 1070 c-18 -12 -2 -12 25 0 13 6 15 9 5 9 -8 0 -22 -4 -30 -9z"/>
<path d="M701 1061 c-10 -6 -1 -8 26 -4 53 7 109 -20 136 -64 11 -19 22 -32
25 -29 9 9 -48 75 -78 91 -32 17 -87 20 -109 6z"/>
<path d="M1134 1038 l-19 -23 23 19 c21 18 27 26 19 26 -2 0 -12 -10 -23 -22z"/>
<path d="M1200 945 c0 -32 28 -45 46 -21 17 24 7 46 -22 46 -19 0 -24 -5 -24
-25z"/>
<path d="M754 946 c-10 -26 4 -48 28 -44 17 2 23 10 23 28 0 18 -6 26 -23 28
-13 2 -25 -3 -28 -12z"/>
<path d="M1019 800 c-3 -36 -4 -66 -3 -68 1 -2 11 2 22 9 14 9 20 22 19 40 -1
15 -5 25 -9 23 -4 -3 -11 10 -16 28 -8 30 -10 27 -13 -32z"/>
<path d="M1120 856 c0 -2 8 -10 18 -17 15 -13 16 -12 3 4 -13 16 -21 21 -21
13z"/>
<path d="M1451 844 c0 -11 3 -14 6 -6 3 7 2 16 -1 19 -3 4 -6 -2 -5 -13z"/>
<path d="M1319 833 c-13 -17 -13 -17 6 -3 11 8 22 16 24 17 2 2 0 3 -6 3 -6 0
-17 -8 -24 -17z"/>
<path d="M662 814 c10 -10 20 -16 22 -13 3 3 -5 11 -17 18 -21 13 -21 12 -5
-5z"/>
<path d="M1320 801 c0 -6 4 -13 10 -16 6 -3 7 1 4 9 -7 18 -14 21 -14 7z"/>
<path d="M1240 784 c0 -8 5 -12 10 -9 6 4 8 11 5 16 -9 14 -15 11 -15 -7z"/>
<path d="M1198 783 c7 -3 16 -2 19 1 4 3 -2 6 -13 5 -11 0 -14 -3 -6 -6z"/>
<path d="M1278 783 c7 -3 16 -2 19 1 4 3 -2 6 -13 5 -11 0 -14 -3 -6 -6z"/>
<path d="M641 752 c-6 -12 -7 -30 -1 -48 4 -16 9 -26 9 -22 1 4 16 -1 34 -11
40 -22 91 -36 82 -21 -3 5 -15 10 -26 10 -46 0 -103 54 -88 82 9 17 12 17 42
2 l32 -15 -25 20 c-31 26 -47 26 -59 3z"/>
<path d="M980 750 c0 -5 5 -10 10 -10 6 0 10 5 10 10 0 6 -4 10 -10 10 -5 0
-10 -4 -10 -10z"/>
<path d="M1296 745 c-23 -17 -14 -20 15 -4 15 8 24 7 36 -3 14 -11 15 -11 11
2 -6 20 -39 23 -62 5z"/>
<path d="M1230 714 c-33 -13 -33 -14 -5 -8 17 3 34 10 40 15 11 11 8 11 -35
-7z"/>
<path d="M840 690 c14 -4 41 -8 60 -8 l35 0 -40 9 c-22 4 -49 8 -60 7 -16 0
-15 -2 5 -8z"/>
<path d="M1143 693 c9 -2 23 -2 30 0 6 3 -1 5 -18 5 -16 0 -22 -2 -12 -5z"/>
<path d="M1053 683 c9 -2 23 -2 30 0 6 3 -1 5 -18 5 -16 0 -22 -2 -12 -5z"/>
<path d="M650 661 c0 -9 59 -66 63 -60 1 2 -12 18 -30 36 -18 17 -33 28 -33
24z"/>
<path d="M1245 650 c-3 -5 -1 -10 4 -10 6 0 11 5 11 10 0 6 -2 10 -4 10 -3 0
-8 -4 -11 -10z"/>
<path d="M790 636 c0 -2 9 -6 20 -9 11 -3 20 -1 20 4 0 5 -9 9 -20 9 -11 0
-20 -2 -20 -4z"/>
<path d="M115 587 c-16 -7 -31 -18 -32 -24 -4 -18 14 -16 24 1 4 8 24 19 43
24 19 6 26 10 15 10 -11 0 -33 -5 -50 -11z"/>
<path d="M10 570 c-9 -6 -10 -10 -3 -10 6 0 15 5 18 10 8 12 4 12 -15 0z"/>
<path d="M1950 571 c0 -4 12 -13 26 -20 20 -9 25 -9 22 0 -5 14 -48 32 -48 20z"/>
<path d="M45 560 c-3 -6 1 -7 9 -4 18 7 21 14 7 14 -6 0 -13 -4 -16 -10z"/>
<path d="M160 260 c0 -5 5 -10 10 -10 6 0 10 5 10 10 0 6 -4 10 -10 10 -5 0
-10 -4 -10 -10z"/>
<path d="M1955 229 c-4 -6 -5 -12 -2 -15 2 -3 7 2 10 11 7 17 1 20 -8 4z"/>
</g>
</svg>
